Coordinates
version=1
nRows=24
nColumns=22
inDegrees=yes

Units are S.I. units (second, meters, Newtons, ...)
If the header above contains a line with 'inDegrees', this indicates whether rotational values are in degrees (yes) or radians (no).

endheader
time	pelvis_tilt	pelvis_list	pelvis_rotation	pelvis_tx	pelvis_ty	pelvis_tz	hip_flexion_r	hip_adduction_r	hip_rotation_r	knee_angle_r	ankle_angle_r	subtalar_angle_r	hip_flexion_l	hip_adduction_l	hip_rotation_l	knee_angle_l	ankle_angle_l	subtalar_angle_l	lumbar_extension	lumbar_bending	lumbar_rotation
      1.41000000	      1.17985848	     -0.52921557	      1.57592280	     -1.71243651	      1.08031402	     -0.33761247	     -2.75332155	      1.50904993	     -4.43185928	    -10.38057905	     11.89028147	     -3.52033091	     -2.33288236	      0.18092269	      0.03784777	    -11.40441202	     13.05821387	     -1.57003595	     -3.07896805	     -1.29695114	     -5.97606002
      1.42000000	      1.16208874	     -0.52439808	      1.55419326	     -1.71200113	      1.08025625	     -0.33738709	     -2.76101058	      1.51476499	     -4.42041124	    -10.37559664	     11.90224183	     -3.52363858	     -2.35017111	      0.17483407	      0.02664986	    -11.38655406	     13.06630050	     -1.56629170	     -3.07112707	     -1.29330798	     -5.99143636
      1.43000000	      1.15112123	     -0.52273190	      1.51956206	     -1.71158480	      1.08019876	     -0.33712381	     -2.77301454	      1.52647598	     -4.36262548	    -10.37504109	     11.94019956	     -3.53809702	     -2.37326044	      0.16413986	      0.01006155	    -11.37248885	     13.08418865	     -1.54735554	     -3.07535947	     -1.29031392	     -5.97696061
      1.44000000	      1.13583696	     -0.51716967	      1.50015216	     -1.71119479	      1.08013379	     -0.33690310	     -2.76915376	      1.53115610	     -4.34731881	    -10.39304180	     11.95454653	     -3.54294501	     -2.38749183	      0.15828484	      0.00198941	    -11.35970727	     13.09278219	     -1.54165992	     -3.08182121	     -1.28529694	     -5.99692015
      1.45000000	      1.12217436	     -0.51322543	      1.48092500	     -1.71083525	      1.08006020	     -0.33667956	     -2.75555851	      1.53786175	     -4.32243266	    -10.43099129	     11.99134460	     -3.55046687	     -2.40009215	      0.15068896	      0.00022570	    -11.35138361	     13.10709979	     -1.53339125	     -3.09792934	     -1.27777040	     -6.00933657
      1.46000000	      1.10176766	     -0.50461753	      1.45374284	     -1.71049667	      1.07995842	     -0.33644958	     -2.72094752	      1.53761545	     -4.30328134	    -10.49285954	     12.07374347	     -3.56831327	     -2.40164404	      0.14792387	     -0.01620058	    -11.35004609	     13.13794473	     -1.51124194	     -3.11407860	     -1.27551432	     -5.99173601
      1.47000000	      1.07728039	     -0.49358909	      1.43267885	     -1.71018104	      1.07984653	     -0.33623385	     -2.66404812	      1.53349281	     -4.29174169	    -10.58745652	     12.14256854	     -3.58437424	     -2.39674971	      0.14787963	     -0.02741558	    -11.34942035	     13.16263512	     -1.48897475	     -3.13286477	     -1.27332820	     -5.99231518
      1.48000000	      1.05051411	     -0.48015271	      1.41515336	     -1.70987173	      1.07971961	     -0.33602322	     -2.59008106	      1.52614935	     -4.28765790	    -10.71051793	     12.22462232	     -3.60010962	     -2.38847995	      0.14991851	     -0.03503312	    -11.35026340	     13.19225418	     -1.46823355	     -3.15485574	     -1.27244246	     -5.99464018
      1.49000000	      1.02256890	     -0.46318229	      1.39605055	     -1.70956870	      1.07957854	     -0.33580816	     -2.49451653	      1.51387917	     -4.28851938	    -10.87193145	     12.32541331	     -3.61889465	     -2.37818361	      0.15527110	     -0.04211379	    -11.35416042	     13.22895957	     -1.44479790	     -3.18185246	     -1.27491386	     -5.99516267
      1.50000000	      0.99424762	     -0.44242097	      1.37600088	     -1.70926700	      1.07942408	     -0.33557606	     -2.37974567	      1.49780303	     -4.28692081	    -11.07014738	     12.43725541	     -3.64257783	     -2.36592416	      0.16261963	     -0.04978922	    -11.36192858	     13.27331185	     -1.41497033	     -3.21432317	     -1.28311315	     -5.99847300
      1.51000000	      0.96521507	     -0.41811620	      1.35706277	     -1.70896785	      1.07925872	     -0.33532748	     -2.24409918	      1.47872188	     -4.28258405	    -11.30674602	     12.56404443	     -3.67350054	     -2.35019588	      0.17143022	     -0.06116210	    -11.37507245	     13.33028167	     -1.37355035	     -3.25369746	     -1.29672814	     -6.00231828
      1.52000000	      0.86097644	     -0.37329065	      1.33512772	     -1.70869794	      1.07897819	     -0.33505039	     -1.99729421	      1.43731883	     -4.25146274	    -11.60010049	     12.70110113	     -3.74664751	     -2.23105469	      0.20051158	     -0.09070966	    -11.43031467	     13.40108823	     -1.22349087	     -3.21134752	     -1.33918344	     -6.01772199
      1.53000000	      0.84253044	     -0.34353272	      1.31865421	     -1.70836254	      1.07879886	     -0.33474482	     -1.83941943	      1.41577390	     -4.24806831	    -11.90292938	     12.86511987	     -3.79115956	     -2.21838189	      0.20729455	     -0.12466316	    -11.46382746	     13.51265260	     -1.14539844	     -3.27147202	     -1.36143795	     -6.04548333
      1.54000000	      0.80108124	     -0.30503638	      1.29924774	     -1.70805137	      1.07858231	     -0.33438940	     -1.63294891	      1.38655676	     -4.23577636	    -12.24674817	     13.04200762	     -3.84832556	     -2.16325397	      0.22024815	     -0.15474643	    -11.53115024	     13.63235635	     -1.00434032	     -3.31542398	     -1.39950974	     -6.06611575
      1.55000000	      0.71754648	     -0.27630351	      1.28503680	     -1.70776606	      1.07830380	     -0.33400128	     -1.36338124	      1.36914427	     -4.22067502	    -12.61954549	     13.21166852	     -3.92324765	     -2.04094240	      0.21972715	     -0.17115481	    -11.63825925	     13.76608377	     -0.74729458	     -3.32094115	     -1.42898236	     -6.07466066
      1.56000000	      0.66727255	     -0.23663376	      1.27225181	     -1.70745171	      1.07806345	     -0.33356955	     -1.13255103	      1.34365665	     -4.20479759	    -12.98964409	     13.41076943	     -3.97593137	     -1.94179579	      0.22661494	     -0.19665710	    -11.77313392	     13.92234065	     -0.52639753	     -3.37198279	     -1.47158502	     -6.10396666
      1.57000000	      0.61100203	     -0.20294865	      1.25954582	     -1.70712401	      1.07781117	     -0.33309043	     -0.89690484	      1.32775435	     -4.18327870	    -13.35790116	     13.62242498	     -4.01974692	     -1.82023066	      0.22389859	     -0.22461662	    -11.93896955	     14.09239158	     -0.28387207	     -3.42362178	     -1.50781310	     -6.14130487
      1.58000000	      0.56265331	     -0.15968146	      1.24548930	     -1.70676507	      1.07756315	     -0.33256570	     -0.68258075	      1.30540613	     -4.14412542	    -13.70797980	     13.84461943	     -4.04926681	     -1.69009625	      0.22900333	     -0.25966445	    -12.13950518	     14.28009013	     -0.06337603	     -3.49000649	     -1.55552734	     -6.19255098
      1.59000000	      0.50470092	     -0.13491163	      1.23064733	     -1.70639546	      1.07729505	     -0.33198310	     -0.46938194	      1.30786132	     -4.09375906	    -14.03933155	     14.08220794	     -4.06965953	     -1.51935757	      0.21264086	     -0.28149569	    -12.39807229	     14.46786230	      0.17992329	     -3.55186664	     -1.58412808	     -6.21792996
      1.60000000	      0.42357334	     -0.13347397	      1.21694927	     -1.70597857	      1.07699103	     -0.33134587	     -0.25148908	      1.34187424	     -4.01154649	    -14.34209442	     14.34830725	     -4.07904903	     -1.30110016	      0.16919030	     -0.30105030	    -12.70049172	     14.62586152	      0.46386269	     -3.58598853	     -1.58537993	     -6.25153965
      1.61000000	      0.35994212	     -0.13499280	      1.20021411	     -1.70552940	      1.07669104	     -0.33064677	     -0.07851079	      1.38586333	     -3.91065654	    -14.60176750	     14.62288063	     -4.07766073	     -1.07149978	      0.12134118	     -0.31738516	    -13.06134805	     14.81525477	      0.68526086	     -3.64759072	     -1.58653226	     -6.27768205
      1.62000000	      0.29644340	     -0.15516574	      1.17731976	     -1.70504311	      1.07637247	     -0.32988545	      0.07611315	      1.45619375	     -3.78194339	    -14.83411359	     14.89945708	     -4.07262255	     -0.81070293	      0.05292616	     -0.33018023	    -13.48416393	     15.02157759	      0.87288525	     -3.71145901	     -1.56477806	     -6.29843540
      1.63000000	      0.22745821	     -0.19705861	      1.15581291	     -1.70451415	      1.07602166	     -0.32906523	      0.20774584	      1.55779231	     -3.62990485	    -15.01911038	     15.18613206	     -4.07253949	     -0.50400893	     -0.03980817	     -0.33589343	    -13.98396083	     15.23052711	      1.04181007	     -3.77083229	     -1.52143551	     -6.30522487
      1.64000000	      0.16086685	     -0.25946080	      1.12769947	     -1.70395910	      1.07564728	     -0.32817676	      0.31390780	      1.68879215	     -3.45518393	    -15.16370629	     15.46547715	     -4.08427550	     -0.15884327	     -0.15493881	     -0.33433349	    -14.56168959	     15.44296246	      1.18073640	     -3.83758691	     -1.45441228	     -6.29974715
